<svg xmlns="http://www.w3.org/2000/svg" xmlns:xlink="http://www.w3.org/1999/xlink" viewBox="0 0 46 37"><defs><style>.cls-1{isolation:isolate;}.cls-2{fill:#72ba6c;}.cls-3{fill:#607676;}.cls-4{fill:#485555;}.cls-5,.cls-6{mix-blend-mode:overlay;}.cls-5{fill:url(#Unbenannter_Verlauf_76);}.cls-6{opacity:0.15;fill:url(#Unbenannter_Verlauf_76-2);}.cls-7{opacity:0.9;fill:url(#Unbenannter_Verlauf_75);}.cls-8{fill:#fff;}.cls-9{fill:#263131;}.cls-10{fill:none;stroke:#4c5b5b;stroke-miterlimit:10;stroke-width:0.69px;}.cls-11{fill:#4c5b5b;}</style><linearGradient id="Unbenannter_Verlauf_76" x1="298.66" y1="426" x2="298.66" y2="408.79" gradientTransform="translate(-0.5)" gradientUnits="userSpaceOnUse"><stop offset="0.18" stop-color="#fff" stop-opacity="0.8"/><stop offset="0.3" stop-color="#fff" stop-opacity="0.76"/><stop offset="0.51" stop-color="#fff" stop-opacity="0.65"/><stop offset="0.78" stop-color="#fff" stop-opacity="0.47"/><stop offset="1" stop-color="#fff" stop-opacity="0.3"/></linearGradient><linearGradient id="Unbenannter_Verlauf_76-2" x1="298.66" y1="426.12" x2="298.66" y2="408.75" xlink:href="#Unbenannter_Verlauf_76"/><linearGradient id="Unbenannter_Verlauf_75" x1="298.85" y1="422.14" x2="298.85" y2="431.31" gradientTransform="translate(-0.5)" gradientUnits="userSpaceOnUse"><stop offset="0" stop-color="#fff"/><stop offset="0.15" stop-color="#fff" stop-opacity="0.98"/><stop offset="0.34" stop-color="#fff" stop-opacity="0.92"/><stop offset="0.55" stop-color="#fff" stop-opacity="0.81"/><stop offset="0.78" stop-color="#fff" stop-opacity="0.67"/><stop offset="1" stop-color="#fff" stop-opacity="0.5"/></linearGradient></defs><title>raccoon</title><g class="cls-1"><g id="Ebene_1" data-name="Ebene 1"><path class="cls-2" d="M287.3,421.09l-1.61,9.58a31.83,31.83,0,0,0-.54,4.68,36,36,0,0,0,.09,4.66l-3.12.22a38.83,38.83,0,0,1,.19-5.08,34,34,0,0,1,.86-4.94l2.17-9.53Z" transform="translate(-275.12 -403.23)"/><path class="cls-2" d="M284.6,425.1c-.25,1-.52,2-.82,3s-.67,2-1,2.93l-2.24,5.62-2.24-.94,2.44-5.53a28.65,28.65,0,0,0,1.08-2.73c.32-.93.62-1.89.89-2.83Z" transform="translate(-275.12 -403.23)"/><path class="cls-3" d="M283.25,416.46a20.55,20.55,0,0,1-3-5.11c-1.2-3-.6-8.12-.6-8.12a21.12,21.12,0,0,1,8.72,4.21,39.68,39.68,0,0,1,4.5,4.51Z" transform="translate(-275.12 -403.23)"/><path class="cls-3" d="M312.54,416.46a20.35,20.35,0,0,0,3-5.11c1.2-3,.9-8.12.9-8.12a21.46,21.46,0,0,0-9,4.21,39.3,39.3,0,0,0-4.51,4.51Z" transform="translate(-275.12 -403.23)"/><path class="cls-4" d="M275.12,426.79a75.81,75.81,0,0,0,23.76,4.36,56.83,56.83,0,0,0,22.24-4.53s-3.74-17.74-23.66-17.77C278.93,408.82,275.12,426.79,275.12,426.79Z" transform="translate(-275.12 -403.23)"/><path class="cls-5" d="M275.32,426s7.33-8.14,16.29-8.8c3.7-.27,6.85,4.26,6.85,4.26s3.59-4.41,7.65-4c7.7.82,14.89,8.45,14.89,8.45s-5.12-17.32-23.52-17.15C280.48,408.94,275.32,426,275.32,426Z" transform="translate(-275.12 -403.23)"/><path class="cls-6" d="M275.32,426.12s7.2-8.25,16.16-8.9c3.7-.27,7.13,4.32,7.13,4.32s3.31-4.47,7.36-4c7.71.83,15,8.31,15,8.31s-5.5-17.12-23.33-17.06C279.69,408.81,275.32,426.12,275.32,426.12Z" transform="translate(-275.12 -403.23)"/><path class="cls-7" d="M286.94,430.12s3.35-8,11.17-8a12.24,12.24,0,0,1,11.64,7.92s-3.42,1.25-10.93,1.25C291,431.31,286.94,430.12,286.94,430.12Z" transform="translate(-275.12 -403.23)"/><ellipse class="cls-8" cx="15.48" cy="16.93" rx="3.61" ry="3.48"/><ellipse class="cls-9" cx="15.48" cy="17.07" rx="2.1" ry="2.37"/><ellipse class="cls-8" cx="31.4" cy="16.93" rx="3.61" ry="3.48"/><ellipse class="cls-9" cx="31.4" cy="17.07" rx="2.1" ry="2.37"/><line class="cls-10" x1="23.67" y1="24.88" x2="23.74" y2="27.9"/><path class="cls-11" d="M298.64,428.25c-.22-1.18-.45-2.37-.7-3.55s-.44-2.37-.78-3.55a2.39,2.39,0,0,1-.08-1.78c.14-.59.35-1.18.48-1.78.23-1.18.44-2.36.56-3.55h1.05c.12,1.19.33,2.37.56,3.55.12.6.34,1.19.48,1.78a2.39,2.39,0,0,1-.08,1.78c-.34,1.18-.51,2.37-.78,3.55S298.87,427.07,298.64,428.25Z" transform="translate(-275.12 -403.23)"/><ellipse class="cls-9" cx="23.59" cy="24.22" rx="3.33" ry="2"/><path class="cls-2" d="M280.75,413.89A79,79,0,0,1,298,411.6a60.47,60.47,0,0,1,8.73.54,51.68,51.68,0,0,1,8.55,1.9l-.54,1.92a81.89,81.89,0,0,0-8.31-1.2,69.16,69.16,0,0,0-8.39-.33c-2.79,0-5.6.27-8.41.54s-5.62.69-8.37,1.14Z" transform="translate(-275.12 -403.23)"/><ellipse class="cls-8" cx="297.9" cy="426.74" rx="1.06" ry="0.54" transform="translate(-317.66 -370.14) rotate(-5.94)"/><ellipse class="cls-8" cx="15.04" cy="16.18" rx="0.71" ry="0.72"/><ellipse class="cls-8" cx="30.96" cy="16.25" rx="0.71" ry="0.72"/></g></g></svg>
